<?xml version="1.0" encoding="UTF-8"?>
<svg version="1.1" xmlns="http://www.w3.org/2000/svg" width="672" height="669">
<path d="M0 0 C221.76 0 443.52 0 672 0 C672 220.77 672 441.54 672 669 C450.24 669 228.48 669 0 669 C0 448.23 0 227.46 0 0 Z " fill="#212122" transform="translate(0,0)"/>
<path d="M0 0 C198.66 0 397.32 0 602 0 C602 104.94 602 209.88 602 318 C403.34 318 204.68 318 0 318 C0 213.06 0 108.12 0 0 Z " fill="#262526" transform="translate(33,116)"/>
<path d="M0 0 C221.76 0 443.52 0 672 0 C672 220.77 672 441.54 672 669 C450.24 669 228.48 669 0 669 C0 448.23 0 227.46 0 0 Z M7 91 C6.979375 154.050625 6.95875 217.10125 6.9375 282.0625 C6.928396 301.80843994 6.91929199 321.55437988 6.90991211 341.89868164 C6.90656316 359.94249717 6.90656316 359.94249717 6.90455627 377.98631287 C6.90364237 385.88617771 6.90005671 393.78603508 6.89442444 401.68589783 C6.88787708 410.88352521 6.88520435 420.08114571 6.88655505 429.27877542 C6.88713598 433.94398807 6.88649434 438.60918555 6.88078487 443.27439511 C6.83983658 482.85779722 7.4989045 522.4134554 8 562 C63.77 562 119.54 562 177 562 C177 562.66 177 563.32 177 564 C178.093125 564.144375 179.18625 564.28875 180.3125 564.4375 C184 565 184 565 187 566 C187 566.66 187 567.32 187 568 C187.94875 568.4125 188.8975 568.825 189.875 569.25 C193.14718995 571.08242637 193.62485026 571.72079678 195 575 C195.99 575.66 196.98 576.32 198 577 C202.96870548 601.84352742 199 627.66447378 199 653 C288.43 653 377.86 653 470 653 C470 633.2 470 613.4 470 593 C471.98 593.33 473.96 593.66 476 594 C475.67 593.34 475.34 592.68 475 592 C473.35 592 471.7 592 470 592 C470 588.04 470 584.08 470 580 C470.66 580 471.32 580 472 580 C472.08636719 579.25105469 472.17273438 578.50210937 472.26171875 577.73046875 C473.14573409 574.4610152 474.22873006 573.44566813 476.8125 571.3125 C477.49957031 570.73113281 478.18664062 570.14976562 478.89453125 569.55078125 C480.86687497 568.09805313 482.77626915 567.01442104 485 566 C485 565.34 485 564.68 485 564 C487.31 564 489.62 564 492 564 C492 563.34 492 562.68 492 562 C547.44 562 602.88 562 660 562 C660.83874726 501.35181188 660.83874726 501.35181188 661.11607273 440.70673926 C661.11145527 435.88575635 661.11318267 431.06477325 661.11389065 426.24378872 C661.11440609 417.03567474 661.10995432 407.82757111 661.10338932 398.61945974 C661.09597849 387.88786654 661.09538348 377.15627891 661.09460449 366.42468262 C661.0894259 338.30395352 661.07546526 310.18322659 661.0625 282.0625 C661.0315625 187.4865625 661.0315625 187.4865625 661 91 C445.18 91 229.36 91 7 91 Z " fill="#1A536C" transform="translate(0,0)"/>
<path d="M0 0 C215.16 0 430.32 0 652 0 C652 121.11 652 242.22 652 367 C436.84 367 221.68 367 0 367 C0 245.89 0 124.78 0 0 Z M25 25 C25 129.94 25 234.88 25 343 C223.66 343 422.32 343 627 343 C627 238.06 627 133.12 627 25 C428.34 25 229.68 25 25 25 Z " fill="#010101" transform="translate(8,91)"/>
<path d="M0 0 C97.02 0 194.04 0 294 0 C292 3 292 3 289 4 C288.67 4.66 288.34 5.32 288 6 C287.34 6 286.68 6 286 6 C286 6.66 286 7.32 286 8 C285.34 8 284.68 8 284 8 C274.0892875 32.77678125 281.35577384 61.31696164 281 88 C192.23 88 103.46 88 12 88 C11.67 64.9 11.34 41.8 11 18 C10.34 16.02 9.68 14.04 9 12 C8.34 11.67 7.68 11.34 7 11 C6.731875 9.88625 6.46375 8.7725 6.1875 7.625 C5.34996429 3.85859768 5.34996429 3.85859768 2.375 2.125 C1.59125 1.75375 0.8075 1.3825 0 1 C0 0.67 0 0.34 0 0 Z " fill="#000000" transform="translate(188,564)"/>
<path d="M0 0 C55.77 0 111.54 0 169 0 C169 26.07 169 52.14 169 79 C113.23 79 57.46 79 0 79 C0 52.93 0 26.86 0 0 Z " fill="#353437" transform="translate(8,483)"/>
<path d="M0 0 C55.44 0 110.88 0 168 0 C168 26.07 168 52.14 168 79 C112.56 79 57.12 79 0 79 C0 52.93 0 26.86 0 0 Z " fill="#353437" transform="translate(492,483)"/>
<path d="M0 0 C221.76 0 443.52 0 672 0 C672 220.77 672 441.54 672 669 C671.34 669 670.68 669 670 669 C670 449.55 670 230.1 670 4 C467.05 4 264.1 4 55 4 C58.63 5.98 62.26 7.96 66 10 C71.49951706 13.6663447 74.4468948 15.81879794 77 22 C77.495 22.61875 77.99 23.2375 78.5 23.875 C84.71210425 32.67548102 83.95506015 44.05336593 82.54296875 54.32421875 C82.09650107 56.57582914 81.6088699 58.78741026 81 61 C80.34 61 79.68 61 79 61 C79 61.99 79 62.98 79 64 C78.34 64 77.68 64 77 64 C76.773125 64.7425 76.54625 65.485 76.3125 66.25 C74.72893272 69.56795048 72.96993727 70.87861623 70 73 C68.948125 73.86625 68.948125 73.86625 67.875 74.75 C66 76 66 76 63 76 C62.814375 76.61875 62.62875 77.2375 62.4375 77.875 C60.65288577 80.51312538 59.03495834 80.83093161 56.03051758 81.61181641 C52.56029127 82.27523589 49.14836287 82.29440381 45.625 82.25 C44.8812915 82.24613281 44.13758301 82.24226563 43.37133789 82.23828125 C38.01044292 82.15394072 33.16683601 81.50307957 28 80 C28 79.34 28 78.68 28 78 C27.44828125 77.91492188 26.8965625 77.82984375 26.328125 77.7421875 C23.25879461 76.76370969 21.26241141 75.13052139 18.75 73.125 C17.85796875 72.42632812 16.9659375 71.72765625 16.046875 71.0078125 C15.37140625 70.34523438 14.6959375 69.68265625 14 69 C14 68.01 14 67.02 14 66 C13.34 66 12.68 66 12 66 C12 65.34 12 64.68 12 64 C11.34 64 10.68 64 10 64 C4.50990237 51.05905559 4.28842835 38.23727273 9 25 C9.66 25 10.32 25 11 25 C11.165 24.154375 11.33 23.30875 11.5 22.4375 C13.30645933 18.29769736 15.53685843 16.47682667 18.984375 13.66796875 C21.18538489 11.91961346 21.18538489 11.91961346 23.5625 9.25 C26 7 26 7 33 4 C18.15 3.505 18.15 3.505 3 3 C3 221.79 3 440.58 3 666 C3.99 666.33 4.98 666.66 6 667 C6 667.66 6 668.32 6 669 C4.02 669 2.04 669 0 669 C0 448.23 0 227.46 0 0 Z " fill="#E2BD86" transform="translate(0,0)"/>
<path d="M0 0 C1.32 0.33 2.64 0.66 4 1 C4 220.45 4 439.9 4 666 C-215.12 666 -434.24 666 -660 666 C-660.495 664.515 -660.495 664.515 -661 663 C-640.35437492 662.80551487 -619.70851869 662.6457686 -599.0625 662.5 C-598.22387688 662.49405146 -597.38525376 662.48810292 -596.52121782 662.48197412 C-505.69760112 661.840555 -414.87222465 661.91591511 -324.04690617 661.93684149 C-321.17927166 661.93750189 -318.31163715 661.93814469 -315.44400263 661.93878555 C-265.96266356 661.94996438 -216.48133156 661.97074062 -167 662 C-167 645.83 -167 629.66 -167 613 C-166.67 613 -166.34 613 -166 613 C-166 629.5 -166 646 -166 663 C-111.55 662.67 -57.1 662.34 -1 662 C-0.67 443.54 -0.34 225.08 0 0 Z " fill="#5B5F61" transform="translate(666,3)"/>
<path d="M0 0 C5.61 0 11.22 0 17 0 C17 12.54 17 25.08 17 38 C114.35 38 211.7 38 312 38 C312 25.46 312 12.92 312 0 C317.61 0 323.22 0 329 0 C329 16.17 329 32.34 329 49 C220.43 49 111.86 49 0 49 C0 32.83 0 16.66 0 0 Z " fill="#F8F8F8" transform="translate(170,616)"/>
<path d="M0 0 C0.82113281 0.54140625 1.64226563 1.0828125 2.48828125 1.640625 C3.19597656 2.05828125 3.90367187 2.4759375 4.6328125 2.90625 C9.19531968 5.78783348 11.2437862 8.88229548 13.48828125 13.640625 C13.48828125 14.300625 13.48828125 14.960625 13.48828125 15.640625 C14.14828125 15.640625 14.80828125 15.640625 15.48828125 15.640625 C18.80316487 21.85931169 18.91175006 27.23872279 18.80078125 34.203125 C18.80400391 35.21826172 18.80722656 36.23339844 18.81054688 37.27929688 C18.74558269 46.32112962 16.53521023 53.07023154 11.48828125 60.640625 C10.00328125 61.135625 10.00328125 61.135625 8.48828125 61.640625 C7.68390625 62.465625 6.87953125 63.290625 6.05078125 64.140625 C3.65132649 66.48155648 2.71694011 67.28188513 -0.51171875 67.640625 C-0.51171875 68.300625 -0.51171875 68.960625 -0.51171875 69.640625 C-1.50171875 69.640625 -2.49171875 69.640625 -3.51171875 69.640625 C-3.51171875 70.300625 -3.51171875 70.960625 -3.51171875 71.640625 C-6.15171875 71.970625 -8.79171875 72.300625 -11.51171875 72.640625 C-11.51171875 73.300625 -11.51171875 73.960625 -11.51171875 74.640625 C-20.44996544 74.96240188 -28.0741929 74.97592934 -36.51171875 71.640625 C-36.51171875 70.980625 -36.51171875 70.320625 -36.51171875 69.640625 C-37.23359375 69.57875 -37.95546875 69.516875 -38.69921875 69.453125 C-44.86291968 67.67250029 -49.13900169 60.89093713 -52.51171875 55.640625 C-52.51171875 54.980625 -52.51171875 54.320625 -52.51171875 53.640625 C-53.17171875 53.640625 -53.83171875 53.640625 -54.51171875 53.640625 C-57.22333058 47.53949839 -57.81341107 42.169456 -57.82421875 35.578125 C-57.829375 34.82289551 -57.83453125 34.06766602 -57.83984375 33.28955078 C-57.77691954 28.11965297 -56.92822479 23.61250478 -55.51171875 18.640625 C-54.85171875 18.640625 -54.19171875 18.640625 -53.51171875 18.640625 C-53.29515625 17.2175 -53.29515625 17.2175 -53.07421875 15.765625 C-52.51171875 12.640625 -52.51171875 12.640625 -51.51171875 10.640625 C-50.85171875 10.640625 -50.19171875 10.640625 -49.51171875 10.640625 C-49.28484375 10.08375 -49.05796875 9.526875 -48.82421875 8.953125 C-44.87622872 1.99714256 -38.57072724 -0.99322026 -31.296875 -3.44140625 C-20.53710856 -6.05084393 -9.64230074 -5.70802866 0 0 Z " fill="#E5BE86" transform="translate(643.51171875,8.359375)"/>
<path d="M0 0 C0.70769531 0.36222656 1.41539062 0.72445312 2.14453125 1.09765625 C9.53514933 5.26636052 14.52119935 11.31001961 18 19 C18.99 19.99 18.99 19.99 20 21 C21.48510271 25.82188411 21.14682777 30.94257825 21.125 35.9375 C21.12886719 36.81857422 21.13273438 37.69964844 21.13671875 38.60742188 C21.12986032 43.18542071 20.93490801 47.49611775 20 52 C18.68 52.33 17.36 52.66 16 53 C15.90203125 53.56589844 15.8040625 54.13179687 15.703125 54.71484375 C14.10156542 59.91991239 9.84949038 64.76700641 5.375 67.75 C4.59125 68.1625 3.8075 68.575 3 69 C2.13375 69.86625 1.2675 70.7325 0.375 71.625 C-2.30210919 74.30210919 -3.7915354 74.94606622 -7.54370117 75.11352539 C-8.53345947 75.10828857 -9.52321777 75.10305176 -10.54296875 75.09765625 C-11.61611328 75.09443359 -12.68925781 75.09121094 -13.79492188 75.08789062 C-14.91447266 75.07951172 -16.03402344 75.07113281 -17.1875 75.0625 C-18.31865234 75.05798828 -19.44980469 75.05347656 -20.61523438 75.04882812 C-23.41020927 75.03703498 -26.2050782 75.0205765 -29 75 C-29 74.34 -29 73.68 -29 73 C-29.99 73 -30.98 73 -32 73 C-32 72.34 -32 71.68 -32 71 C-32.99 71 -33.98 71 -35 71 C-35 70.34 -35 69.68 -35 69 C-36.65 68.67 -38.3 68.34 -40 68 C-40 67.34 -40 66.68 -40 66 C-40.59941406 65.73058594 -41.19882812 65.46117187 -41.81640625 65.18359375 C-48.9315265 61.32691855 -52.31289844 53.25838589 -55 46 C-55.94786904 42.29094722 -56.13475145 38.82256978 -56.125 35 C-56.12757813 33.989375 -56.13015625 32.97875 -56.1328125 31.9375 C-56.00826727 29.18285256 -55.62110865 26.68161197 -55 24 C-54.34 24 -53.68 24 -53 24 C-52.79117188 23.14728516 -52.79117188 23.14728516 -52.578125 22.27734375 C-49.57899268 10.46319415 -49.57899268 10.46319415 -44 6 C-43.01 5.67 -42.02 5.34 -41 5 C-41 4.34 -41 3.68 -41 3 C-38.09399739 1.74335022 -36.20395416 1 -33 1 C-33 0.34 -33 -0.32 -33 -1 C-31.68 -1 -30.36 -1 -29 -1 C-29 -1.66 -29 -2.32 -29 -3 C-18.88964869 -5.33315799 -9.19297314 -4.89329286 0 0 Z " fill="#E1BC85" transform="translate(641,587)"/>
<path d="M0 0 C1.010625 0.639375 2.02125 1.27875 3.0625 1.9375 C4.5165625 2.9584375 4.5165625 2.9584375 6 4 C7.010625 4.70125 8.02125 5.4025 9.0625 6.125 C13.10326743 9.56282569 14.91736002 14.2291297 17 19 C17.32226562 19.62648438 17.64453125 20.25296875 17.9765625 20.8984375 C21.58653604 28.62445564 21.22659035 38.8749045 18.875 46.9375 C17.32047443 50.88360337 14.96672714 54.09320912 12.3046875 57.37109375 C10.92257518 58.97976573 10.92257518 58.97976573 10 61 C9.34 61 8.68 61 8 61 C7.505 62.485 7.505 62.485 7 64 C5.01310269 65.35278115 3.01254782 66.68568305 1 68 C0.34 68.99 -0.32 69.98 -1 71 C-6.66075979 75.03399659 -12.72887932 74.34014941 -19.375 74.1875 C-21.05142578 74.16719727 -21.05142578 74.16719727 -22.76171875 74.14648438 C-25.50831211 74.11127164 -28.25390289 74.06202096 -31 74 C-31 73.34 -31 72.68 -31 72 C-31.99 72 -32.98 72 -34 72 C-34 71.34 -34 70.68 -34 70 C-34.86625 69.814375 -34.86625 69.814375 -35.75 69.625 C-38.02335767 68.99351176 -39.9253529 68.11141809 -42 67 C-42 66.34 -42 65.68 -42 65 C-42.86625 64.62875 -42.86625 64.62875 -43.75 64.25 C-46.38704101 62.78497722 -48.07358864 61.32497923 -50 59 C-50.75 56.25 -50.75 56.25 -51 54 C-51.66 54 -52.32 54 -53 54 C-53 53.01 -53 52.02 -53 51 C-53.66 51 -54.32 51 -55 51 C-57.32418264 41.80702761 -58.15173852 32.3127243 -56 23 C-55.34 23 -54.68 23 -54 23 C-53.896875 21.989375 -53.79375 20.97875 -53.6875 19.9375 C-52.49847615 13.12763614 -50.31960515 8.50120435 -45 4 C-44.34 4 -43.68 4 -43 4 C-43 3.34 -43 2.68 -43 2 C-40.09399739 0.74335022 -38.20395416 0 -35 0 C-35 -0.66 -35 -1.32 -35 -2 C-33.68 -2 -32.36 -2 -31 -2 C-31 -2.66 -31 -3.32 -31 -4 C-20.44466542 -6.43584644 -9.15657119 -5.9772062 0 0 Z " fill="#E4BE86" transform="translate(64,588)"/>
<path d="M0 0 C221.76 0 443.52 0 672 0 C672 220.77 672 441.54 672 669 C671.34 669 670.68 669 670 669 C670 449.55 670 230.1 670 4 C669.01 4 668.02 4 667 4 C667 3.34 667 2.68 667 2 C447.88 2 228.76 2 3 2 C3 221.12 3 440.24 3 666 C3.99 666.33 4.98 666.66 6 667 C6 667.66 6 668.32 6 669 C4.02 669 2.04 669 0 669 C0 448.23 0 227.46 0 0 Z " fill="#F3F5F6" transform="translate(0,0)"/>
<path d="M0 0 C2.47141655 1.53262758 4.446232 3.04489104 6.2109375 5.37109375 C6.2109375 6.03109375 6.2109375 6.69109375 6.2109375 7.37109375 C6.8709375 7.37109375 7.5309375 7.37109375 8.2109375 7.37109375 C9.9151053 12.5305624 10.43319355 16.81362705 10.3359375 22.30859375 C10.32691406 22.99244141 10.31789063 23.67628906 10.30859375 24.38085938 C10.28532708 26.04442662 10.24946917 27.70781006 10.2109375 29.37109375 C9.5509375 29.37109375 8.8909375 29.37109375 8.2109375 29.37109375 C8.12585938 29.95503906 8.04078125 30.53898438 7.953125 31.140625 C7.00031759 34.00406202 5.62828301 35.12311521 3.3359375 37.05859375 C2.63726563 37.66058594 1.93859375 38.26257813 1.21875 38.8828125 C-0.7890625 40.37109375 -0.7890625 40.37109375 -3.7890625 41.37109375 C-3.7890625 42.03109375 -3.7890625 42.69109375 -3.7890625 43.37109375 C-10.08118284 45.17934329 -17.1029753 45.50497095 -23.1640625 42.80859375 C-26.60827411 40.83644805 -28.6159397 38.40622782 -30.68359375 35.0546875 C-31.73127043 33.30066039 -31.73127043 33.30066039 -33.36328125 31.96875 C-37.39139545 27.45505491 -36.10924635 19.01526489 -35.7890625 13.37109375 C-35.31219101 10.89136201 -34.65454792 8.75117865 -33.7890625 6.37109375 C-33.1290625 6.37109375 -32.4690625 6.37109375 -31.7890625 6.37109375 C-31.5621875 5.77296875 -31.3353125 5.17484375 -31.1015625 4.55859375 C-24.80813654 -5.93044952 -9.17843038 -4.98459373 0 0 Z " fill="#FEFDFB" transform="translate(636.7890625,602.62890625)"/>
<path d="M0 0 C5.19701316 3.29566688 9.05987361 8.42519843 10.6328125 14.40625 C11.02238263 17.15810706 11.13272965 19.78369174 11.125 22.5625 C11.12886719 23.95662109 11.12886719 23.95662109 11.1328125 25.37890625 C11.01309964 27.74147476 10.66993233 29.74030763 10 32 C9.34 32 8.68 32 8 32 C7.95875 32.886875 7.9175 33.77375 7.875 34.6875 C6.74651326 38.95962837 4.63427215 40.7671792 1 43 C-4.73996421 46.07278598 -10.55940009 46.92154848 -17 46 C-22.48413854 44.21980843 -26.1068707 41.23664071 -30 37 C-30.66 36.67 -31.32 36.34 -32 36 C-34.60783429 27.16233933 -35.7987637 16.63355385 -32 8 C-24.62629649 -2.01756431 -11.37256332 -5.54759186 0 0 Z " fill="#FEFCFA" transform="translate(56,601)"/>
<path d="M0 0 C3.40790484 2.07464773 4.85118393 3.13167679 6.13671875 6.98828125 C6.79671875 6.98828125 7.45671875 6.98828125 8.13671875 6.98828125 C12.50784042 14.33971314 12.43714166 22.68385889 11.13671875 30.98828125 C8.9452117 37.07124941 5.67652786 41.6400435 -0.11328125 44.67578125 C-7.07119459 47.09386357 -15.19812314 47.18034667 -22.015625 44.2265625 C-27.81474654 40.34004764 -31.86748176 33.56267957 -33.86328125 26.98828125 C-34.57547293 20.76234749 -33.45412598 14.9965609 -31.86328125 8.98828125 C-31.20328125 8.98828125 -30.54328125 8.98828125 -29.86328125 8.98828125 C-29.63640625 8.43140625 -29.40953125 7.87453125 -29.17578125 7.30078125 C-23.5349777 -2.63777739 -10.13035373 -3.57948379 0 0 Z " fill="#FEFDFB" transform="translate(634.86328125,21.01171875)"/>
<path d="M0 0 C0.75410156 0.00451172 1.50820313 0.00902344 2.28515625 0.01367188 C4.14847127 0.02546501 6.01174555 0.04340058 7.875 0.0625 C7.875 0.7225 7.875 1.3825 7.875 2.0625 C8.7 2.041875 9.525 2.02125 10.375 2 C15.81657987 3.65190817 18.72511861 7.44668336 21.875 12.0625 C22.875 15.5625 22.875 15.5625 22.875 19.0625 C22.92140625 19.77277344 22.9678125 20.48304687 23.015625 21.21484375 C23.3473279 28.14506505 21.84945178 33.83795344 17.5 39.3125 C13.11406717 43.90728677 9.94043889 46.83440607 3.5078125 47.1953125 C-1.14833127 47.18080738 -5.54556636 47.02659129 -10.125 46.0625 C-10.125 45.4025 -10.125 44.7425 -10.125 44.0625 C-11.01832031 43.68738281 -11.01832031 43.68738281 -11.9296875 43.3046875 C-14.4285965 41.89071408 -15.57918472 40.50564686 -17.25 38.1875 C-17.74757813 37.50945313 -18.24515625 36.83140625 -18.7578125 36.1328125 C-21.74021136 31.61660851 -22.36019111 28.82205536 -22.25 23.3125 C-22.22292969 21.55679688 -22.22292969 21.55679688 -22.1953125 19.765625 C-22.17210938 18.87359375 -22.14890625 17.9815625 -22.125 17.0625 C-21.465 17.0625 -20.805 17.0625 -20.125 17.0625 C-20.145625 16.093125 -20.16625 15.12375 -20.1875 14.125 C-19.42777682 8.32024008 -14.34565865 4.67135675 -10.125 1.0625 C-6.93675432 -0.53162284 -3.49603338 -0.03924735 0 0 Z " fill="#FEFDFC" transform="translate(44.125,19.9375)"/>
<path d="M0 0 C1.65 0 3.3 0 5 0 C5 20.13 5 40.26 5 61 C94.43 61 183.86 61 276 61 C276 41.2 276 21.4 276 1 C281.67248984 1.94541497 283.13145458 2.24198445 287 6 C292.90385938 23.71157813 288 43.33035738 288 62 C190.65 62 93.3 62 -7 62 C-7 43.85 -7 25.7 -7 7 C-5.68 6.34 -4.36 5.68 -3 5 C-2.67 4.01 -2.34 3.02 -2 2 C-1.34 2 -0.68 2 0 2 C0 1.34 0 0.68 0 0 Z " fill="#B17640" transform="translate(194,592)"/>
<path d="M0 0 C0.33 0 0.66 0 1 0 C1.33 201.96 1.66 403.92 2 612 C2.66 609.69 3.32 607.38 4 605 C4.66 605 5.32 605 6 605 C6.12375 604.195625 6.2475 603.39125 6.375 602.5625 C6.58125 601.716875 6.7875 600.87125 7 600 C7.66 599.67 8.32 599.34 9 599 C8.34 601.97 7.68 604.94 7 608 C6.34 608 5.68 608 5 608 C4.85135985 622.02903187 4.85135985 622.02903187 6 636 C6.66 636 7.32 636 8 636 C8 636.99 8 637.98 8 639 C8.66 639 9.32 639 10 639 C10.2475 640.11375 10.495 641.2275 10.75 642.375 C11.59804328 646.0103024 11.59804328 646.0103024 13.9375 647.3125 C14.618125 647.539375 15.29875 647.76625 16 648 C16.99 648.66 17.98 649.32 19 650 C19 650.66 19 651.32 19 652 C19.5775 652.12375 20.155 652.2475 20.75 652.375 C23.02335767 653.00648824 24.9253529 653.88858191 27 655 C27 655.66 27 656.32 27 657 C27.99 657 28.98 657 30 657 C30 657.66 30 658.32 30 659 C36.27 659 42.54 659 49 659 C48.67 659.66 48.34 660.32 48 661 C86.94 661.33 125.88 661.66 166 662 C166 645.83 166 629.66 166 613 C166.33 613 166.66 613 167 613 C167 629.5 167 646 167 663 C111.89 663 56.78 663 0 663 C0 444.21 0 225.42 0 0 Z " fill="#2F6377" transform="translate(3,3)"/>
<path d="M0 0 C7.50452201 -0.45027132 13.79665247 -0.66330534 20 4 C24.81931157 8.38791539 26.84735463 13.09973799 27.1875 19.5625 C26.77354641 27.1516491 26.77354641 27.1516491 24.22265625 29.94921875 C23.50980469 30.52285156 22.79695313 31.09648438 22.0625 31.6875 C20.99708984 32.55955078 20.99708984 32.55955078 19.91015625 33.44921875 C19.27980469 33.96097656 18.64945313 34.47273438 18 35 C17.34 35.66 16.68 36.32 16 37 C10.95936169 38.48254068 5.55289788 38.56039222 0.4375 37.4375 C-4.37431674 34.59976192 -9.03725288 30.32609533 -11 25 C-11.23046875 21.87109375 -11.23046875 21.87109375 -11.1875 18.4375 C-11.18105469 17.30183594 -11.17460937 16.16617188 -11.16796875 14.99609375 C-11 12 -11 12 -10 9 C-9.34 9 -8.68 9 -8 9 C-8 8.34 -8 7.68 -8 7 C-7.34 7 -6.68 7 -6 7 C-5.67 6.01 -5.34 5.02 -5 4 C-3.68352881 3.30062468 -2.34977849 2.63270867 -1 2 C-0.67 1.34 -0.34 0.68 0 0 Z " fill="#757675" transform="translate(233,24)"/>
<path d="M0 0 C1.24523437 0.02707031 2.49046875 0.05414062 3.7734375 0.08203125 C4.71445312 0.11683594 5.65546875 0.15164062 6.625 0.1875 C6.625 0.8475 6.625 1.5075 6.625 2.1875 C7.615 2.1875 8.605 2.1875 9.625 2.1875 C11.16015625 3.578125 11.16015625 3.578125 12.6875 5.4375 C13.19410156 6.04078125 13.70070313 6.6440625 14.22265625 7.265625 C17.33592838 11.53228207 17.87918896 14.42094576 17.8125 19.75 C17.80605469 20.88566406 17.79960937 22.02132812 17.79296875 23.19140625 C17.625 26.1875 17.625 26.1875 16.625 29.1875 C15.635 29.5175 14.645 29.8475 13.625 30.1875 C13.295 30.8475 12.965 31.5075 12.625 32.1875 C11.965 32.1875 11.305 32.1875 10.625 32.1875 C10.625 32.8475 10.625 33.5075 10.625 34.1875 C4.75581076 37.60230101 0.42475427 39.00561639 -6.375 38.1875 C-7.365 37.8575 -8.355 37.5275 -9.375 37.1875 C-9.375 36.5275 -9.375 35.8675 -9.375 35.1875 C-10.138125 34.94 -10.90125 34.6925 -11.6875 34.4375 C-14.65291695 33.0582363 -15.75860273 31.99492685 -17.375 29.1875 C-17.375 28.1975 -17.375 27.2075 -17.375 26.1875 C-18.035 26.1875 -18.695 26.1875 -19.375 26.1875 C-21.38206464 19.91542299 -20.35784456 14.25996147 -18.375 8.1875 C-17.715 8.1875 -17.055 8.1875 -16.375 8.1875 C-16.045 7.1975 -15.715 6.2075 -15.375 5.1875 C-14.715 5.1875 -14.055 5.1875 -13.375 5.1875 C-13.375 4.5275 -13.375 3.8675 -13.375 3.1875 C-8.70450485 0.4498713 -5.38700281 -0.15246234 0 0 Z " fill="#757675" transform="translate(304.375,23.8125)"/>
<path d="M0 0 C7.50261221 -0.45015673 13.79922071 -0.66493812 20 4 C24.98220906 8.54626576 25.8761603 12.3993662 26.1875 18.9375 C26.054823 25.3783651 24.0056457 29.79601695 19.69921875 34.51953125 C15.68019168 38.02116633 10.28839008 38.4978501 5.11328125 38.296875 C-0.09442376 37.56529352 -4.36189205 36.08763524 -7.6796875 31.859375 C-11.61105323 24.79624335 -11.87490295 18.54949535 -10.375 10.75 C-8.58870614 7.17741228 -6.26124155 4.34012752 -3 2 C-2.01 2 -1.02 2 0 2 C0 1.34 0 0.68 0 0 Z " fill="#757675" transform="translate(358,24)"/>
<path d="M0 0 C13.57491841 -0.93120629 13.57491841 -0.93120629 19.34375 3.46875 C19.8903125 3.9740625 20.436875 4.479375 21 5 C21.5259375 5.4846875 22.051875 5.969375 22.59375 6.46875 C26.46275452 10.85362179 26.7408332 15.36342882 26.484375 21.0625 C25.73515292 25.6061694 23.97198014 28.54995335 21 32 C20.195625 32.99 19.39125 33.98 18.5625 35 C13.70579527 38.74080391 6.72535137 37.70885303 1 37 C-5.41480727 34.36534701 -8.97513578 28.04972844 -12 22 C-12.26470588 13.79411765 -12.26470588 13.79411765 -11 10 C-10.34 10 -9.68 10 -9 10 C-9 9.34 -9 8.68 -9 8 C-8.34 8 -7.68 8 -7 8 C-6.67 7.01 -6.34 6.02 -6 5 C-5.34 5 -4.68 5 -4 5 C-4 4.34 -4 3.68 -4 3 C-2.68 2.67 -1.36 2.34 0 2 C0 1.34 0 0.68 0 0 Z " fill="#767675" transform="translate(420,24)"/>
<path d="M0 0 C219.12 0 438.24 0 664 0 C664 0.33 664 0.66 664 1 C361.06 1.495 361.06 1.495 52 2 C52.66 2.66 53.32 3.32 54 4 C52.67742188 3.80083984 52.67742188 3.80083984 51.328125 3.59765625 C34.32935426 1.29015055 17.12582155 1.34068835 0 1 C0 0.67 0 0.34 0 0 Z " fill="#87A9B6" transform="translate(3,2)"/>
<path d="M0 0 C5.67248984 0.94541497 7.13145458 1.24198445 11 5 C12.12994506 8.38983518 12.11510392 10.9302793 12.09375 14.50390625 C12.09016479 15.15847305 12.08657959 15.81303986 12.08288574 16.48744202 C12.01588702 24.97338797 11.75446699 33.45555166 11.5 41.9375 C11.45162516 43.60350989 11.40344703 45.26952551 11.35546875 46.93554688 C11.23923725 50.95710057 11.12037722 54.97856835 11 59 C7.37 59 3.74 59 0 59 C0 39.53 0 20.06 0 0 Z " fill="#C76E28" transform="translate(470,593)"/>
<path d="M0 0 C100.98 0 201.96 0 306 0 C301.49998274 3.37501295 301.49998274 3.37501295 296.88341618 3.37473011 C295.84396699 3.38193665 294.8045178 3.3891432 293.73357016 3.39656812 C292.59302048 3.38919383 291.4524708 3.38181955 290.27735901 3.3742218 C289.06465409 3.37819621 287.85194917 3.38217061 286.60249561 3.38626546 C283.23473579 3.39423518 279.86748346 3.38871507 276.4997648 3.37751496 C272.86847356 3.36868294 269.23721737 3.3771136 265.60592651 3.38337708 C258.49133216 3.39287325 251.37683912 3.38625792 244.26225228 3.37411413 C235.97954181 3.36050251 227.69685556 3.36213128 219.41413676 3.36424746 C204.63634054 3.3674386 189.85859248 3.35576291 175.08081055 3.33618164 C160.73704562 3.31718042 146.39333716 3.31009304 132.04956055 3.31567383 C116.43654767 3.32173046 100.82355963 3.32155641 85.21054882 3.310188 C83.5459286 3.30898069 81.88130838 3.3077747 80.21668816 3.30657005 C78.9881023 3.30566475 78.9881023 3.30566475 77.73469653 3.30474115 C71.95965427 3.30086011 66.18462126 3.30125636 60.40957832 3.3031559 C53.37203977 3.30527718 46.33455071 3.30005894 39.29702611 3.28554235 C35.70555931 3.27829425 32.11416463 3.27422484 28.52269173 3.27878571 C24.63162083 3.28360686 20.74068128 3.2729552 16.84962463 3.26069641 C15.1421462 3.2663654 15.1421462 3.2663654 13.40017325 3.27214891 C11.83708785 3.26340062 11.83708785 3.26340062 10.24242496 3.25447559 C9.34427635 3.25360882 8.44612774 3.25274204 7.5207625 3.251849 C4.71779979 2.97180542 2.5555719 2.15769928 0 1 C0 0.67 0 0.34 0 0 Z " fill="#141414" transform="translate(181,562)"/>
<path d="M0 0 C0.99 0.66 1.98 1.32 3 2 C3 1.34 3 0.68 3 0 C4.32 0 5.64 0 7 0 C7.33 1.65 7.66 3.3 8 5 C8.66 5 9.32 5 10 5 C10.33 4.01 10.66 3.02 11 2 C11.66 2 12.32 2 13 2 C13 1.34 13 0.68 13 0 C13.99 0 14.98 0 16 0 C15.67 0.99 15.34 1.98 15 3 C14.34 3 13.68 3 13 3 C13.32960216 8.01535052 13.32960216 8.01535052 16 12 C15.67 12.99 15.34 13.98 15 15 C13.62437146 13.71034824 12.29233607 12.37310707 11 11 C11 10.34 11 9.68 11 9 C10.01 9.33 9.02 9.66 8 10 C7.67 11.65 7.34 13.3 7 15 C6.071875 14.79375 5.14375 14.5875 4.1875 14.375 C0.84826598 13.63307034 0.84826598 13.63307034 -2 16 C-5.5625 15.8125 -5.5625 15.8125 -9 15 C-11.20914 11.68629 -11.22481553 10.6553979 -11.125 6.8125 C-11.10695313 5.91144531 -11.08890625 5.01039062 -11.0703125 4.08203125 C-11.04710937 3.39496094 -11.02390625 2.70789063 -11 2 C-10.34 2 -9.68 2 -9 2 C-9 1.34 -9 0.68 -9 0 C-5.88109857 -1.55945072 -3.34501482 -0.64552918 0 0 Z " fill="#245C74" transform="translate(370,70)"/>
<path d="M0 0 C1.95803507 -0.05389087 3.91648909 -0.09274217 5.875 -0.125 C7.51082031 -0.15980469 7.51082031 -0.15980469 9.1796875 -0.1953125 C12 0 12 0 14 2 C13.27554688 2.02578125 12.55109375 2.0515625 11.8046875 2.078125 C4.56955162 2.5025863 0.16071171 3.52321712 -4.875 9.0625 C-6.8497006 14.21866268 -7.04257652 19.89469143 -5.2734375 25.1640625 C-3.23788666 29.05312304 -1.10915965 31.51370821 3 33 C9.17979735 33.67089543 14.81303281 33.79534185 20 30 C22.36702059 26.95202627 22.36702059 26.95202627 24 24 C24.495 25.485 24.495 25.485 25 27 C23.63671875 28.97265625 23.63671875 28.97265625 21.6875 31.0625 C21.05199219 31.75472656 20.41648438 32.44695313 19.76171875 33.16015625 C15.67351646 37.42965354 12.83743429 38.0222896 7 38.1875 C0.34497303 38.03822837 -2.87385495 35.45736109 -7.44921875 30.8515625 C-10.8698326 26.76750465 -11.25402509 23.75345944 -11.1875 18.4375 C-11.18105469 17.30183594 -11.17460937 16.16617188 -11.16796875 14.99609375 C-11 12 -11 12 -10 9 C-9.34 9 -8.68 9 -8 9 C-8 8.34 -8 7.68 -8 7 C-7.34 7 -6.68 7 -6 7 C-5.67 6.01 -5.34 5.02 -5 4 C-3.68352881 3.30062468 -2.34977849 2.63270867 -1 2 C-0.67 1.34 -0.34 0.68 0 0 Z " fill="#DBB883" transform="translate(233,24)"/>
<path d="M0 0 C1.74216797 0.02707031 1.74216797 0.02707031 3.51953125 0.0546875 C4.39996094 0.07789062 5.28039062 0.10109375 6.1875 0.125 C6.1875 0.455 6.1875 0.785 6.1875 1.125 C5.22650391 1.16367187 5.22650391 1.16367187 4.24609375 1.203125 C-1.84609042 1.60261249 -5.93932673 2.3458044 -10.8125 6.125 C-13.87593313 11.26366202 -14.365978 15.31348104 -13.8125 21.125 C-12.41325055 24.42601131 -12.41325055 24.42601131 -10.8125 27.125 C-10.8125 27.785 -10.8125 28.445 -10.8125 29.125 C-10.19375 29.434375 -9.575 29.74375 -8.9375 30.0625 C-7.5625 30.75 -6.1875 31.4375 -4.8125 32.125 C1.36026719 32.64948349 7.00935793 32.91388444 12.1875 29.125 C14.60371515 25.97049689 16.52383814 22.72960069 18.1875 19.125 C17.72430089 23.84963088 17.08858294 27.29557052 14.1875 31.125 C13.5275 31.125 12.8675 31.125 12.1875 31.125 C12.1875 31.785 12.1875 32.445 12.1875 33.125 C6.31831076 36.53980101 1.98725427 37.94311639 -4.8125 37.125 C-5.8025 36.795 -6.7925 36.465 -7.8125 36.125 C-7.8125 35.465 -7.8125 34.805 -7.8125 34.125 C-8.575625 33.8775 -9.33875 33.63 -10.125 33.375 C-13.09041695 31.9957363 -14.19610273 30.93242685 -15.8125 28.125 C-15.8125 27.135 -15.8125 26.145 -15.8125 25.125 C-16.4725 25.125 -17.1325 25.125 -17.8125 25.125 C-19.81956464 18.85292299 -18.79534456 13.19746147 -16.8125 7.125 C-16.1525 7.125 -15.4925 7.125 -14.8125 7.125 C-14.4825 6.135 -14.1525 5.145 -13.8125 4.125 C-13.1525 4.125 -12.4925 4.125 -11.8125 4.125 C-11.8125 3.465 -11.8125 2.805 -11.8125 2.125 C-7.73526266 0.17468308 -4.49557578 -0.09081971 0 0 Z " fill="#D7B682" transform="translate(302.8125,24.875)"/>
<path d="M0 0 C0.33 0.66 0.66 1.32 1 2 C0.67 2.66 0.34 3.32 0 4 C-0.62004936 9.34128233 -0.95423931 14.3910104 2.125 19 C5.23425072 22.62166913 8.37892838 24.6706264 13.20703125 25.27734375 C18.05374756 25.47828555 20.98379796 24.92087421 25 22 C25.66 22 26.32 22 27 22 C27.4640625 21.071875 27.4640625 21.071875 27.9375 20.125 C28.625 18.75 29.3125 17.375 30 16 C30.22858114 13.9625237 30.41024278 11.91959697 30.5625 9.875 C30.64628906 8.77929688 30.73007812 7.68359375 30.81640625 6.5546875 C30.90728516 5.29011719 30.90728516 5.29011719 31 4 C33.49804868 7.74707302 33.3800176 10.67110381 33 15 C31.89047996 20.4366482 29.1447437 24.3888325 25 28 C18.44917228 30.79016736 11.97540589 30.96751418 5.3125 28.625 C0.65266738 26.35151765 -1.20085767 23.28037517 -3.19140625 18.58984375 C-5.24223362 12.02125173 -4.06861164 7.01447881 -1 1 C-0.67 0.67 -0.34 0.34 0 0 Z " fill="#C6AE81" transform="translate(351,32)"/>
<path d="M0 0 C8.14583333 -0.47916667 8.14583333 -0.47916667 11.5625 1.4375 C13.7145847 5.27382489 13.74831272 8.70704811 13 13 C11.5625 15.5625 11.5625 15.5625 9 17 C5.91796887 17.31297734 3.11460416 17.18321201 0 17 C0 11.39 0 5.78 0 0 Z " fill="#8EAFBB" transform="translate(421,69)"/>
<path d="M0 0 C1.79133978 -0.05391993 3.58313899 -0.09275571 5.375 -0.125 C6.37273437 -0.14820312 7.37046875 -0.17140625 8.3984375 -0.1953125 C11 0 11 0 13 2 C13.55197535 5.71276051 13.54018723 9.28621281 13 13 C10.15437427 16.01808789 8.36466223 15.97568918 4.25 16.25 C1 16 1 16 0 15 C-0.07313567 12.46950598 -0.09247527 9.96695163 -0.0625 7.4375 C-0.05798828 6.72658203 -0.05347656 6.01566406 -0.04882812 5.28320312 C-0.03700864 3.52209987 -0.01907263 1.76103964 0 0 Z " fill="#A9C2CB" transform="translate(250,70)"/>
<path d="M0 0 C1.588125 -0.061875 3.17625 -0.12375 4.8125 -0.1875 C6.15248047 -0.23970703 6.15248047 -0.23970703 7.51953125 -0.29296875 C10 0 10 0 11.79296875 1.26953125 C13.50279478 3.72083524 13.53585884 6.06518798 13.40625 8.9921875 C12.6724433 12.61888598 11.00480151 13.996799 8 16 C5.36 16 2.72 16 0 16 C0 10.72 0 5.44 0 0 Z " fill="#B1C8D0" transform="translate(296,70)"/>
<path d="M0 0 C7.51953125 -0.390625 7.51953125 -0.390625 10 0 C12.53812872 2.5491881 12.97289207 3.813633 13.5 7.4375 C13 11 13 11 11 13.9375 C8 16 8 16 0 16 C0 10.72 0 5.44 0 0 Z " fill="#B2C9D1" transform="translate(312,70)"/>
<path d="M0 0 C0.33 0 0.66 0 1 0 C1.01417969 0.71285156 1.02835937 1.42570312 1.04296875 2.16015625 C1.36983169 8.72391742 2.12543092 13.36321478 7 18 C11.72724289 21.33055749 16.38290599 21.87919732 22 21 C25.62669741 19.70025873 28.29165527 17.83047313 30.8125 14.875 C32.533287 10.70888411 33.26814575 6.43417573 34 2 C34.33 2 34.66 2 35 2 C35.69141097 9.49796785 34.83239679 14.15707519 30 20 C29.195625 20.99 28.39125 21.98 27.5625 23 C22.71123804 26.73661169 15.71924166 25.72085567 10 25 C6.4375 23.4375 6.4375 23.4375 4 21 C3.27876953 20.32324219 3.27876953 20.32324219 2.54296875 19.6328125 C-1.78285255 14.84223353 -1.45749351 9.91074241 -1.2734375 3.6953125 C-1 1 -1 1 0 0 Z " fill="#D5B682" transform="translate(411,36)"/>
<path d="M0 0 C0.33 1.32 0.66 2.64 1 4 C0.34 3.67 -0.32 3.34 -1 3 C-4.54171978 2.83330682 -4.54171978 2.83330682 -8 3 C-9.40432936 4.17718985 -9.40432936 4.17718985 -9.125 7.5 C-9.40432936 10.82281015 -9.40432936 10.82281015 -8 12 C-6.65252916 12.23075082 -5.29622435 12.41153063 -3.9375 12.5625 C-2.638125 12.706875 -1.33875 12.85125 0 13 C0 12.01 0 11.02 0 10 C-1.32 10 -2.64 10 -4 10 C-4 9.01 -4 8.02 -4 7 C-2.02 7 -0.04 7 2 7 C2 9.64 2 12.28 2 15 C0.39884424 15.2493357 -1.20620159 15.47378648 -2.8125 15.6875 C-3.70582031 15.81511719 -4.59914062 15.94273438 -5.51953125 16.07421875 C-8 16 -8 16 -9.82421875 14.64453125 C-11 13 -11 13 -11 11 C-11.66 11 -12.32 11 -13 11 C-13.36681223 3.54148472 -13.36681223 3.54148472 -11.6875 1.0625 C-7.61714113 -1.50031855 -4.5570719 -0.7738424 0 0 Z " fill="#96B5C0" transform="translate(230,70)"/>
<path d="M0 0 C0.66 0 1.32 0 2 0 C2 5.28 2 10.56 2 16 C0.68 16 -0.64 16 -2 16 C-3.4140625 14.28515625 -3.4140625 14.28515625 -4.625 12.0625 C-6.22192755 8.93256594 -6.22192755 8.93256594 -9 7 C-9 9.97 -9 12.94 -9 16 C-9.66 16 -10.32 16 -11 16 C-11 11.05 -11 6.1 -11 1 C-10.01 1 -9.02 1 -8 1 C-6.68359375 2.71484375 -6.68359375 2.71484375 -5.4375 4.9375 C-3.79661289 8.06087402 -3.79661289 8.06087402 -1 10 C-1.01160156 9.36191406 -1.02320313 8.72382812 -1.03515625 8.06640625 C-1.04417969 7.24011719 -1.05320313 6.41382812 -1.0625 5.5625 C-1.07410156 4.73878906 -1.08570313 3.91507812 -1.09765625 3.06640625 C-1 1 -1 1 0 0 Z " fill="#9FBBC5" transform="translate(246,69)"/>
<path d="M0 0 C0.33 1.32 0.66 2.64 1 4 C0.01 4 -0.98 4 -2 4 C-2 3.34 -2 2.68 -2 2 C-3.98 2 -5.96 2 -8 2 C-8 2.99 -8 3.98 -8 5 C-6.700625 5.12375 -5.40125 5.2475 -4.0625 5.375 C-1.84765625 5.5859375 -1.84765625 5.5859375 0 6 C1.4783226 8.95664519 1.06032783 11.74229737 1 15 C-0.43410368 15.24954005 -1.87260072 15.47392642 -3.3125 15.6875 C-4.11300781 15.81511719 -4.91351563 15.94273438 -5.73828125 16.07421875 C-8 16 -8 16 -9.79296875 14.70703125 C-11 13 -11 13 -11 10 C-10.01 10.33 -9.02 10.66 -8 11 C-8 11.66 -8 12.32 -8 13 C-5.69 13 -3.38 13 -1 13 C-1.33 12.01 -1.66 11.02 -2 10 C-3.84359622 9.16524481 -3.84359622 9.16524481 -6 8.625 C-8.17578125 7.8828125 -8.17578125 7.8828125 -10 7 C-11.1875 4.5 -11.1875 4.5 -11 2 C-8.71077704 -2.57844591 -4.2130359 -0.75972779 0 0 Z " fill="#A5BFC9" transform="translate(355,70)"/>
<path d="M0 0 C0 1.32 0 2.64 0 4 C-0.99 4 -1.98 4 -3 4 C-3 3.34 -3 2.68 -3 2 C-4.65 2 -6.3 2 -8 2 C-7.67 2.99 -7.34 3.98 -7 5 C-3.48809191 6.22969878 -3.48809191 6.22969878 0 7 C0.33 8.98 0.66 10.96 1 13 C-0.5625 14.5625 -0.5625 14.5625 -3 16 C-6.75 15.6875 -6.75 15.6875 -10 15 C-10.33 13.35 -10.66 11.7 -11 10 C-9.515 10.99 -9.515 10.99 -8 12 C-6.0103005 12.39013716 -4.00980131 12.73202649 -2 13 C-2.33 11.68 -2.66 10.36 -3 9 C-5.31 8.34 -7.62 7.68 -10 7 C-11.30508475 2.61016949 -11.30508475 2.61016949 -10.0625 0.125 C-6.67379594 -1.72338403 -3.72908833 -0.67245855 0 0 Z " fill="#ADC5CE" transform="translate(418,70)"/>
<path d="M0 0 C0.33 1.98 0.66 3.96 1 6 C1.66 6 2.32 6 3 6 C3.33 8.97 3.66 11.94 4 15 C3.01 14.34 2.02 13.68 1 13 C1 12.34 1 11.68 1 11 C-3.60742865 12.21044132 -3.60742865 12.21044132 -8 14 C-7.71926927 11.85270859 -7.42511501 9.70716807 -7.125 7.5625 C-6.96257812 6.36753906 -6.80015625 5.17257813 -6.6328125 3.94140625 C-6.42398437 2.97074219 -6.21515625 2.00007813 -6 1 C-4 0 -4 0 0 0 Z " fill="#9EBAC4" transform="translate(445,70)"/>
<path d="M0 0 C0.66 0 1.32 0 2 0 C2 1.98 2 3.96 2 6 C0.02 6 -1.96 6 -4 6 C-4 6.99 -4 7.98 -4 9 C-2.68 9 -1.36 9 0 9 C0 9.99 0 10.98 0 12 C-6.0546875 12.1953125 -6.0546875 12.1953125 -8 12 C-10 10 -10 10 -10.25 6.5 C-10 3 -10 3 -8 1 C-5.66702567 0.95907063 -3.33294775 0.95758277 -1 1 C-0.67 0.67 -0.34 0.34 0 0 Z " fill="#296078" transform="translate(230,71)"/>
<path d="M0 0 C3.375 -0.125 3.375 -0.125 7 0 C7.66 0.66 8.32 1.32 9 2 C8.9765625 4.1640625 8.9765625 4.1640625 8.625 6.625 C8.45871094 7.85089844 8.45871094 7.85089844 8.2890625 9.1015625 C8.14597656 10.04128906 8.14597656 10.04128906 8 11 C5.36 11 2.72 11 0 11 C0 7.37 0 3.74 0 0 Z " fill="#30667D" transform="translate(298,72)"/>
<path d="M0 0 C1.4375 2.0625 1.4375 2.0625 2 4 C1.01 4 0.02 4 -1 4 C-1 3.34 -1 2.68 -1 2 C-3.31 2.33 -5.62 2.66 -8 3 C-8 5.64 -8 8.28 -8 11 C-5.69 11.66 -3.38 12.32 -1 13 C-0.67 12.01 -0.34 11.02 0 10 C0.66 10 1.32 10 2 10 C1.6875 11.875 1.6875 11.875 1 14 C-2 16 -2 16 -5.5625 15.8125 C-9 15 -9 15 -11 12 C-11.1953125 9.51953125 -11.1953125 9.51953125 -11.125 6.8125 C-11.10695313 5.91144531 -11.08890625 5.01039062 -11.0703125 4.08203125 C-11.04710937 3.39496094 -11.02390625 2.70789063 -11 2 C-10.34 2 -9.68 2 -9 2 C-9 1.34 -9 0.68 -9 0 C-5.81926598 -1.59036701 -3.37573597 -0.78365299 0 0 Z " fill="#AAC3CC" transform="translate(370,70)"/>
<path d="M0 0 C0.99 0 1.98 0 3 0 C3.19517554 1.93674185 3.38087873 3.87444009 3.5625 5.8125 C3.66691406 6.89144531 3.77132813 7.97039063 3.87890625 9.08203125 C4 12 4 12 3 15 C2.34 15 1.68 15 1 15 C1 14.01 1 13.02 1 12 C-1.31 12 -3.62 12 -6 12 C-5.43697042 8.05879291 -4.3208055 5.2491277 -2 2 C-1.34 2 -0.68 2 0 2 C0 1.34 0 0.68 0 0 Z " fill="#ACC5CD" transform="translate(460,36)"/>
<path d="M0 0 C2.31 0 4.62 0 7 0 C8.49297212 2.98594424 8.11755228 5.70853624 8 9 C7.67 9.66 7.34 10.32 7 11 C4.69 11 2.38 11 0 11 C0 7.37 0 3.74 0 0 Z " fill="#296078" transform="translate(253,72)"/>
<path d="M0 0 C2.31 0 4.62 0 7 0 C7.19491452 1.45736087 7.38069358 2.91594593 7.5625 4.375 C7.66691406 5.18710938 7.77132813 5.99921875 7.87890625 6.8359375 C8 9 8 9 7 11 C4.69 11 2.38 11 0 11 C0 7.37 0 3.74 0 0 Z " fill="#286078" transform="translate(314,72)"/>
<path d="M0 0 C1.95803507 -0.05389087 3.91648909 -0.09274217 5.875 -0.125 C7.51082031 -0.15980469 7.51082031 -0.15980469 9.1796875 -0.1953125 C12 0 12 0 14 2 C13.27554688 2.02578125 12.55109375 2.0515625 11.8046875 2.078125 C5.8163312 2.4294419 1.63178454 2.83139392 -3 7 C-4.01656081 8.65661761 -5.02065076 10.32111559 -6 12 C-6.99 12 -7.98 12 -9 12 C-9 16.62 -9 21.24 -9 26 C-9.66 25.67 -10.32 25.34 -11 25 C-11.02701408 22.89590361 -11.04640223 20.79170822 -11.0625 18.6875 C-11.07410156 17.51574219 -11.08570313 16.34398437 -11.09765625 15.13671875 C-11 12 -11 12 -10 9 C-9.34 9 -8.68 9 -8 9 C-8 8.34 -8 7.68 -8 7 C-7.34 7 -6.68 7 -6 7 C-5.67 6.01 -5.34 5.02 -5 4 C-3.68352881 3.30062468 -2.34977849 2.63270867 -1 2 C-0.67 1.34 -0.34 0.68 0 0 Z " fill="#ACA27E" transform="translate(233,24)"/>
<path d="M0 0 C3 1 3 1 4.16796875 3.28515625 C5.11197917 5.85677083 6.05598958 8.42838542 7 11 C8.32 7.7 9.64 4.4 11 1 C11.99 1 12.98 1 14 1 C12.25192871 6.46737191 10.34205919 11.75824848 8 17 C7.01 17 6.02 17 5 17 C4.49242138 15.58603098 3.99425075 14.16868271 3.5 12.75 C3.2215625 11.96109375 2.943125 11.1721875 2.65625 10.359375 C2 8 2 8 2 4 C1.34 4 0.68 4 0 4 C0 2.68 0 1.36 0 0 Z " fill="#99B6C1" transform="translate(280,69)"/>
<path d="M0 0 C2.875 -0.125 2.875 -0.125 6 0 C8 2 8 2 8.25 5.5 C8 9 8 9 6 11 C2.875 11.125 2.875 11.125 0 11 C0 7.37 0 3.74 0 0 Z " fill="#265E76" transform="translate(424,72)"/>
<path d="M0 0 C0.66 0 1.32 0 2 0 C2.33 1.65 2.66 3.3 3 5 C3.66 5 4.32 5 5 5 C5.33 4.01 5.66 3.02 6 2 C6.66 2 7.32 2 8 2 C8 1.34 8 0.68 8 0 C8.99 0 9.98 0 11 0 C10.67 0.99 10.34 1.98 10 3 C9.34 3 8.68 3 8 3 C8.32960216 8.01535052 8.32960216 8.01535052 11 12 C10.67 12.99 10.34 13.98 10 15 C8.62437146 13.71034824 7.29233607 12.37310707 6 11 C6 10.34 6 9.68 6 9 C5.01 9.33 4.02 9.66 3 10 C2.67 11.65 2.34 13.3 2 15 C1.34 15 0.68 15 0 15 C0 10.05 0 5.1 0 0 Z " fill="#BACFD6" transform="translate(375,70)"/>
<path d="M0 0 C1.74216797 0.02707031 1.74216797 0.02707031 3.51953125 0.0546875 C4.39996094 0.07789062 5.28039062 0.10109375 6.1875 0.125 C6.1875 0.455 6.1875 0.785 6.1875 1.125 C5.22650391 1.16367187 5.22650391 1.16367187 4.24609375 1.203125 C-1.84609042 1.60261249 -5.93932673 2.3458044 -10.8125 6.125 C-12.2066388 8.44524529 -12.96248947 10.52496778 -13.8125 13.125 C-14.4725 12.795 -15.1325 12.465 -15.8125 12.125 C-16.4725 15.095 -17.1325 18.065 -17.8125 21.125 C-18.1425 21.125 -18.4725 21.125 -18.8125 21.125 C-19.02442221 15.93290596 -18.4037689 11.998261 -16.8125 7.125 C-16.1525 7.125 -15.4925 7.125 -14.8125 7.125 C-14.4825 6.135 -14.1525 5.145 -13.8125 4.125 C-13.1525 4.125 -12.4925 4.125 -11.8125 4.125 C-11.8125 3.465 -11.8125 2.805 -11.8125 2.125 C-7.73526266 0.17468308 -4.49557578 -0.09081971 0 0 Z " fill="#A69D7D" transform="translate(302.8125,24.875)"/>
<path d="M0 0 C15.51 0 31.02 0 47 0 C47 0.66 47 1.32 47 2 C49.31 2.33 51.62 2.66 54 3 C50.38358196 4.24106663 47.65670606 3.7610989 43.9296875 3.1015625 C35.00618223 1.7249782 26.13956904 1.54832238 17.125 1.375 C15.45440943 1.33670008 13.78383606 1.29764203 12.11328125 1.2578125 C8.07566513 1.1631629 4.03795769 1.07867397 0 1 C0 0.67 0 0.34 0 0 Z " fill="#91A6A3" transform="translate(3,2)"/>
<path d="M0 0 C0.33 0.99 0.66 1.98 1 3 C-0.36328125 4.97265625 -0.36328125 4.97265625 -2.3125 7.0625 C-2.94800781 7.75472656 -3.58351562 8.44695313 -4.23828125 9.16015625 C-8.32648354 13.42965354 -11.16256571 14.0222896 -17 14.1875 C-20.38396842 14.15545484 -22.93891072 13.53054464 -26 12 C-24.66666667 11.66666667 -23.33333333 11.33333333 -22 11 C-21.40574219 10.83886719 -20.81148437 10.67773438 -20.19921875 10.51171875 C-18 10 -18 10 -15.37890625 9.640625 C-10.67695764 8.98848234 -7.71669458 8.57043038 -3.9375 5.5625 C-2.567423 3.75046267 -1.2601087 1.89016305 0 0 Z " fill="#AA9F7D" transform="translate(257,48)"/>
<path d="M0 0 C0 0.33 0 0.66 0 1 C-2.31 1 -4.62 1 -7 1 C-7 1.66 -7 2.32 -7 3 C-8.66220581 4.00739746 -10.33020674 5.00522955 -12 6 C-17.05305165 9.59619817 -17.05305165 9.59619817 -19.9375 14.875 C-19.958125 15.57625 -19.97875 16.2775 -20 17 C-20.66 17 -21.32 17 -22 17 C-22 20.96 -22 24.92 -22 29 C-22.33 29 -22.66 29 -23 29 C-23.08139142 26.60347472 -23.14067009 24.20974564 -23.1875 21.8125 C-23.22520508 20.80219727 -23.22520508 20.80219727 -23.26367188 19.77148438 C-23.32869757 15.3280616 -22.80384843 12.49632431 -20 9 C-19.34 9 -18.68 9 -18 9 C-18 8.34 -18 7.68 -18 7 C-17.34 7 -16.68 7 -16 7 C-15.67 6.01 -15.34 5.02 -15 4 C-9.73206703 0.23719073 -6.41479997 -0.4501614 0 0 Z " fill="#143848" transform="translate(492,563)"/>
<path d="M0 0 C0.33 0 0.66 0 1 0 C0.53680089 4.72463088 -0.09891706 8.17057052 -3 12 C-3.66 12 -4.32 12 -5 12 C-5 12.66 -5 13.32 -5 14 C-10.70982637 17.3220808 -15.33327966 19.13084408 -22 18 C-22.99 17.34 -23.98 16.68 -25 16 C-23.02 15.67 -21.04 15.34 -19 15 C-19 14.67 -19 14.34 -19 14 C-17.89591797 13.85304688 -17.89591797 13.85304688 -16.76953125 13.703125 C-9.01023577 12.65374887 -9.01023577 12.65374887 -3 8 C-1.76034749 5.35878118 -0.88516001 2.79524214 0 0 Z " fill="#A99F7D" transform="translate(320,44)"/>
<path d="M0 0 C4.66369049 5.88030541 4.18303995 11.08275707 4.1875 18.3125 C4.19974609 19.34568359 4.21199219 20.37886719 4.22460938 21.44335938 C4.24225372 30.61253564 2.12316772 37.31524843 -3 45 C-3.66 44.67 -4.32 44.34 -5 44 C-4.360625 42.9275 -3.72125 41.855 -3.0625 40.75 C-1.59398727 38.19177818 -0.47145458 35.94659114 0 33 C0.66 33 1.32 33 2 33 C2.05837668 29.29173349 2.09372277 25.5835863 2.125 21.875 C2.14175781 20.82828125 2.15851562 19.7815625 2.17578125 18.703125 C2.20976852 13.33313666 2.00035478 9.05601483 0 4 C0 2.68 0 1.36 0 0 Z " fill="#B2A57E" transform="translate(658,24)"/>
<path d="M0 0 C0.66 0 1.32 0 2 0 C2 0.99 2 1.98 2 3 C2.66 3 3.32 3 4 3 C4 5.64 4 8.28 4 11 C3.01 11.33 2.02 11.66 1 12 C0.67 9.69 0.34 7.38 0 5 C-2.64 4.67 -5.28 4.34 -8 4 C-8 3.01 -8 2.02 -8 1 C-6.02 1 -4.04 1 -2 1 C-2 1.66 -2 2.32 -2 3 C-1.01 3 -0.02 3 1 3 C0.67 2.01 0.34 1.02 0 0 Z " fill="#265F76" transform="translate(355,71)"/>
<path d="M0 0 C-0.54269531 0.30292969 -1.08539063 0.60585938 -1.64453125 0.91796875 C-6.00826998 3.47331125 -8.68045726 5.36091452 -11 10 C-11.99 10.495 -11.99 10.495 -13 11 C-13.4683265 13.58605332 -13.4683265 13.58605332 -13.625 16.5625 C-13.69976562 17.57441406 -13.77453125 18.58632813 -13.8515625 19.62890625 C-13.90054687 20.41136719 -13.94953125 21.19382812 -14 22 C-16 20 -16 20 -16.1875 16.125 C-16.120382 13.28539226 -15.90494365 10.71483095 -15 8 C-14.34 8 -13.68 8 -13 8 C-13 7.34 -13 6.68 -13 6 C-12.34 6 -11.68 6 -11 6 C-10.67 5.01 -10.34 4.02 -10 3 C-9.34 3 -8.68 3 -8 3 C-8 2.34 -8 1.68 -8 1 C-3.375 -1.125 -3.375 -1.125 0 0 Z " fill="#868E79" transform="translate(424,26)"/>
<path d="M0 0 C1.60031344 3.20062687 0.03173691 5.72271806 -1 9 C-1.66 9 -2.32 9 -3 9 C-3.02724423 11.83339965 -3.04695589 14.66653117 -3.0625 17.5 C-3.07087891 18.29148437 -3.07925781 19.08296875 -3.08789062 19.8984375 C-3.10891185 25.02761717 -2.73937287 29.92336106 -2 35 C-2.66 35 -3.32 35 -4 35 C-5.02505791 29.93165812 -5.15032077 25.08183587 -5.125 19.9375 C-5.12886719 19.14794922 -5.13273438 18.35839844 -5.13671875 17.54492188 C-5.1300451 13.56409085 -4.98504182 9.88544274 -4 6 C-3.34 6 -2.68 6 -2 6 C-1.855625 5.195625 -1.71125 4.39125 -1.5625 3.5625 C-1 1 -1 1 0 0 Z " fill="#758677" transform="translate(11,602)"/>
<path d="M0 0 C1.65 0.33 3.3 0.66 5 1 C5.33 2.98 5.66 4.96 6 7 C4.4375 8.5625 4.4375 8.5625 2 10 C-1.75 9.6875 -1.75 9.6875 -5 9 C-5.33 7.35 -5.66 5.7 -6 4 C-4.515 4.99 -4.515 4.99 -3 6 C-1.0103005 6.39013716 0.99019869 6.73202649 3 7 C3.25030977 4.58380177 3.25030977 4.58380177 3 2 C2.01 1.34 1.02 0.68 0 0 Z " fill="#88AAB7" transform="translate(413,76)"/>
<path d="M0 0 C2.64 0.33 5.28 0.66 8 1 C8 1.66 8 2.32 8 3 C13.61 3 19.22 3 25 3 C25 3.66 25 4.32 25 5 C16.06175331 5.32177688 8.43752585 5.33530434 0 2 C0 1.34 0 0.68 0 0 Z " fill="#95977B" transform="translate(607,78)"/>
<path d="M0 0 C2 1 2 1 3.10546875 4.1015625 C5.29061916 13.62461975 4.78467698 23.01139218 1 32 C-0.16180608 28.07240184 0.24015041 25.02720283 1 21 C1.33 20.67 1.66 20.34 2 20 C2.46615048 14.2435836 2.0656574 9.42235068 0 4 C0 2.68 0 1.36 0 0 Z " fill="#7F8B78" transform="translate(80,607)"/>
<path d="M0 0 C2.31 0.33 4.62 0.66 7 1 C7.33 2.65 7.66 4.3 8 6 C5.125 6.125 5.125 6.125 2 6 C1.34 5.34 0.68 4.68 0 4 C0 5.32 0 6.64 0 8 C-0.66 8 -1.32 8 -2 8 C-2 6.02 -2 4.04 -2 2 C-1.34 2 -0.68 2 0 2 C0 1.34 0 0.68 0 0 Z " fill="#386D83" transform="translate(408,77)"/>
<path d="M0 0 C0.66 0.33 1.32 0.66 2 1 C1.36191406 1.69867187 0.72382813 2.39734375 0.06640625 3.1171875 C-0.75988281 4.02726563 -1.58617187 4.93734375 -2.4375 5.875 C-3.26121094 6.77992188 -4.08492187 7.68484375 -4.93359375 8.6171875 C-7.00907942 10.81137927 -7.00907942 10.81137927 -8 13 C-8.99 13 -9.98 13 -11 13 C-9.60846256 8.57238086 -7.47928514 6.0443745 -4 3 C-3.34 3 -2.68 3 -2 3 C-2 2.34 -2 1.68 -2 1 C-1.34 0.67 -0.68 0.34 0 0 Z " fill="#ADA27E" transform="translate(23,589)"/>
<path d="M0 0 C0.33 0 0.66 0 1 0 C1.60206696 6.52908172 1.22339537 10.94937832 -2.62109375 16.37109375 C-4.22452504 18.26523213 -5.86158824 19.73279303 -8 21 C-7.65247148 17.87224334 -7.42424513 16.39003181 -5.0625 14.21875 C-2.51669485 11.48008082 -2.03860448 9.37758062 -1.25 5.75 C-1.00765625 4.67234375 -0.7653125 3.5946875 -0.515625 2.484375 C-0.34546875 1.66453125 -0.1753125 0.8446875 0 0 Z " fill="#C9AF81" transform="translate(445,38)"/>
<path d="M0 0 C0 4.95 0 9.9 0 15 C-0.66 15 -1.32 15 -2 15 C-2 11.7 -2 8.4 -2 5 C-3.32 5 -4.64 5 -6 5 C-4.87312259 1.61936778 -3.78825335 0 0 0 Z " fill="#ACC4CD" transform="translate(211,36)"/>
<path d="M0 0 C0.66 0.33 1.32 0.66 2 1 C3.59755476 7.96077433 3.59755476 7.96077433 1.5625 11.5 C-2.12633511 13.65931811 -4.76461913 13.28235872 -9 13 C-9 12.34 -9 11.68 -9 11 C-6.04335481 9.5216774 -3.25770263 9.93967217 0 10 C0 6.7 0 3.4 0 0 Z " fill="#93B2BE" transform="translate(321,73)"/>
<path d="M0 0 C0.66 0 1.32 0 2 0 C2 4.95 2 9.9 2 15 C1.01 14.34 0.02 13.68 -1 13 C-1 12.01 -1 11.02 -1 10 C-1.66 9.67 -2.32 9.34 -3 9 C-2.01 9 -1.02 9 0 9 C0 7.68 0 6.36 0 5 C-1.32 4.67 -2.64 4.34 -4 4 C-3.01 4 -2.02 4 -1 4 C-0.67 2.68 -0.34 1.36 0 0 Z " fill="#3B7085" transform="translate(373,70)"/>
<path d="M0 0 C1.62418745 -0.08090971 3.24951745 -0.13914995 4.875 -0.1875 C5.77992188 -0.22230469 6.68484375 -0.25710937 7.6171875 -0.29296875 C8.79667969 -0.14794922 8.79667969 -0.14794922 10 0 C12.13586678 3.20380017 12.23132175 4.01939967 12.125 7.6875 C12.10695313 8.49574219 12.08890625 9.30398437 12.0703125 10.13671875 C12.03550781 11.05904297 12.03550781 11.05904297 12 12 C11.34 12 10.68 12 10 12 C9.67 9.36 9.34 6.72 9 4 C6.03 3.01 3.06 2.02 0 1 C0 0.67 0 0.34 0 0 Z " fill="#ACC4CD" transform="translate(422,70)"/>
<path d="M0 0 C-0.58021778 3.2548802 -1.52647141 4.93652408 -3.875 7.25 C-4.38804687 7.77078125 -4.90109375 8.2915625 -5.4296875 8.828125 C-7 10 -7 10 -10 10 C-10.33 10.99 -10.66 11.98 -11 13 C-11.33 12.34 -11.66 11.68 -12 11 C-11.67 10.34 -11.34 9.68 -11 9 C-10.34 9 -9.68 9 -9 9 C-8.6596875 8.1646875 -8.6596875 8.1646875 -8.3125 7.3125 C-6.49644015 4.11277551 -3.9498923 0 0 0 Z " fill="#B2A57F" transform="translate(603,10)"/>
<path d="M0 0 C0.99 0 1.98 0 3 0 C2.67 0.99 2.34 1.98 2 3 C1.34 3 0.68 3 0 3 C0.32960216 8.01535052 0.32960216 8.01535052 3 12 C2.67 12.99 2.34 13.98 2 15 C0.62437146 13.71034824 -0.70766393 12.37310707 -2 11 C-2 10.34 -2 9.68 -2 9 C-2.99 8.67 -3.98 8.34 -5 8 C-4.01 8 -3.02 8 -2 8 C-2.33 6.35 -2.66 4.7 -3 3 C-2.01 2.67 -1.02 2.34 0 2 C0 1.34 0 0.68 0 0 Z " fill="#A1BCC6" transform="translate(383,70)"/>
<path d="M0 0 C0.33 1.32 0.66 2.64 1 4 C0.01 4 -0.98 4 -2 4 C-2 3.34 -2 2.68 -2 2 C-3.98 2 -5.96 2 -8 2 C-8.33 2.99 -8.66 3.98 -9 5 C-9.66 5 -10.32 5 -11 5 C-10.625 2.5625 -10.625 2.5625 -10 0 C-6.7169902 -1.6415049 -3.57454967 -0.51888624 0 0 Z " fill="#8DAEBA" transform="translate(355,70)"/>
<path d="M0 0 C2.49147882 3.73721823 2.40027405 6.67867401 2 11 C0.66176471 16.55882353 0.66176471 16.55882353 -3 19 C-3.33 18.01 -3.66 17.02 -4 16 C-3.53980469 15.40703125 -3.07960938 14.8140625 -2.60546875 14.203125 C-0.5171381 11.33738659 -0.50329613 9.26064885 -0.3125 5.75 C-0.24675781 4.67234375 -0.18101562 3.5946875 -0.11328125 2.484375 C-0.07589844 1.66453125 -0.03851563 0.8446875 0 0 Z " fill="#A29A7C" transform="translate(382,36)"/>
<path d="M0 0 C0.33 0 0.66 0 1 0 C1 4.62 1 9.24 1 14 C2.093125 13.79375 3.18625 13.5875 4.3125 13.375 C8 13 8 13 11 15 C7.50615721 16.16461426 4.66344611 16.13568319 1 16 C0 15 0 15 -0.09765625 11.62109375 C-0.09098369 10.22652923 -0.07902532 8.83198257 -0.0625 7.4375 C-0.05798828 6.72658203 -0.05347656 6.01566406 -0.04882812 5.28320312 C-0.03700864 3.52209987 -0.01907263 1.76103964 0 0 Z " fill="#7EA4B1" transform="translate(250,70)"/>
<path d="M0 0 C2.31 0.66 4.62 1.32 7 2 C7.33 3.32 7.66 4.64 8 6 C4.6875 6.25 4.6875 6.25 1 6 C-0.9375 4 -0.9375 4 -2 2 C-1.34 2 -0.68 2 0 2 C0 1.34 0 0.68 0 0 Z " fill="#32687F" transform="translate(346,77)"/>
<path d="M0 0 C-0.53109375 0.32613281 -1.0621875 0.65226562 -1.609375 0.98828125 C-3.06449644 1.88843849 -4.5148787 2.79629253 -5.9609375 3.7109375 C-7.42274485 4.63506858 -8.89547971 5.54200088 -10.375 6.4375 C-12.66142853 8.63598897 -13.19583086 10.98436572 -14 14 C-15 12 -15 12 -14.4375 9.25 C-12.68730023 5.29302661 -10.40041108 2.65630077 -7 0 C-3.86650268 -1.04449911 -3.01031744 -0.93423645 0 0 Z " fill="#9A987B" transform="translate(362,26)"/>
<path d="M0 0 C0.33 1.32 0.66 2.64 1 4 C0.34 4 -0.32 4 -1 4 C-1 5.65 -1 7.3 -1 9 C-1.99 9 -2.98 9 -4 9 C-4 7.02 -4 5.04 -4 3 C-3.01 3 -2.02 3 -1 3 C-1 2.34 -1 1.68 -1 1 C-2.32 1.33 -3.64 1.66 -5 2 C-5.33 3.65 -5.66 5.3 -6 7 C-7 5 -7 5 -6.6875 2.9375 C-5.43000137 -0.60635976 -3.65558032 0 0 0 Z " fill="#648FA0" transform="translate(445,70)"/>
<path d="M0 0 C1.95803507 -0.05389087 3.91648909 -0.09274217 5.875 -0.125 C7.51082031 -0.15980469 7.51082031 -0.15980469 9.1796875 -0.1953125 C12 0 12 0 14 2 C13.25234375 2.04898437 12.5046875 2.09796875 11.734375 2.1484375 C10.74953125 2.22320313 9.7646875 2.29796875 8.75 2.375 C7.28820312 2.47941406 7.28820312 2.47941406 5.796875 2.5859375 C3.10366811 2.98465249 1.33036721 3.63507063 -1 5 C-1 2 -1 2 0 0 Z " fill="#96957B" transform="translate(233,24)"/>
<path d="M0 0 C0.99 0.33 1.98 0.66 3 1 C3 1.66 3 2.32 3 3 C5.97 3 8.94 3 12 3 C12 3.66 12 4.32 12 5 C10.56589632 5.24954005 9.12739928 5.47392642 7.6875 5.6875 C6.88699219 5.81511719 6.08648437 5.94273438 5.26171875 6.07421875 C3 6 3 6 1.20703125 4.70703125 C0 3 0 3 0 0 Z " fill="#8BACB9" transform="translate(344,80)"/>
<path d="M0 0 C4.62 0 9.24 0 14 0 C14.33 0.66 14.66 1.32 15 2 C14.39414062 1.96519531 13.78828125 1.93039062 13.1640625 1.89453125 C6.57816697 1.68175616 1.18882796 2.7878232 -5 5 C-5 4.34 -5 3.68 -5 3 C-3.35 2.67 -1.7 2.34 0 2 C0 1.34 0 0.68 0 0 Z " fill="#F2DCBB" transform="translate(616,598)"/>
<path d="M0 0 C4.875 0.875 4.875 0.875 6 2 C6.36090226 9.45864662 6.36090226 9.45864662 4 13 C3.01 12.67 2.02 12.34 1 12 C1.66 12 2.32 12 3 12 C3.08131463 10.56344146 3.13933559 9.1255517 3.1875 7.6875 C3.22230469 6.88699219 3.25710938 6.08648437 3.29296875 5.26171875 C2.93801608 2.52148416 2.10633718 1.70828921 0 0 Z " fill="#B2C9D1" transform="translate(303,71)"/>
<path d="M0 0 C0.33 0.66 0.66 1.32 1 2 C0.67 2.66 0.34 3.32 0 4 C-0.22858114 6.0374763 -0.41024278 8.08040303 -0.5625 10.125 C-0.64628906 11.22070312 -0.73007812 12.31640625 -0.81640625 13.4453125 C-0.87699219 14.28835937 -0.93757813 15.13140625 -1 16 C-1.33 15.34 -1.66 14.68 -2 14 C-2.66 14 -3.32 14 -4 14 C-4.38338879 8.76035318 -3.26296201 5.61644249 -1 1 C-0.67 0.67 -0.34 0.34 0 0 Z " fill="#DDB983" transform="translate(351,32)"/>
<path d="M0 0 C7.07487342 -0.64317031 11.09493185 1.17264102 17 5 C16.67 5.99 16.34 6.98 16 8 C14.02 7.01 12.04 6.02 10 5 C10 4.34 10 3.68 10 3 C6.7 2.34 3.4 1.68 0 1 C0 0.67 0 0.34 0 0 Z " fill="#102A35" transform="translate(177,563)"/>
<path d="M0 0 C0.33 0 0.66 0 1 0 C1 4.95 1 9.9 1 15 C0.34 14.01 -0.32 13.02 -1 12 C-1.99 12.495 -1.99 12.495 -3 13 C-2.88490339 11.58249437 -2.75746342 10.16598831 -2.625 8.75 C-2.55539062 7.96109375 -2.48578125 7.1721875 -2.4140625 6.359375 C-1.98492887 3.914123 -1.21399362 2.15163097 0 0 Z " fill="#396E83" transform="translate(311,70)"/>
<path d="M0 0 C0.33 0 0.66 0 1 0 C0.53680089 4.72463088 -0.09891706 8.17057052 -3 12 C-3.66 12 -4.32 12 -5 12 C-5 12.66 -5 13.32 -5 14 C-6.875 14.625 -6.875 14.625 -9 15 C-9.66 14.34 -10.32 13.68 -11 13 C-9.63875 12.443125 -9.63875 12.443125 -8.25 11.875 C-3.92113288 9.37757666 -1.75455606 6.38942753 -0.25 1.625 C-0.1675 1.08875 -0.085 0.5525 0 0 Z " fill="#BCA87F" transform="translate(320,44)"/>
<path d="M0 0 C0.66 0.33 1.32 0.66 2 1 C1.34 3.31 0.68 5.62 0 8 C-0.66 8 -1.32 8 -2 8 C-2 11.96 -2 15.92 -2 20 C-2.33 20 -2.66 20 -3 20 C-3.08139142 17.60347472 -3.14067009 15.20974564 -3.1875 12.8125 C-3.22520508 11.80219727 -3.22520508 11.80219727 -3.26367188 10.77148438 C-3.32923478 6.29135252 -2.66743649 3.60559001 0 0 Z " fill="#0D242D" transform="translate(472,572)"/>
<path d="M0 0 C1.65 0 3.3 0 5 0 C5 0.66 5 1.32 5 2 C5.99 2 6.98 2 8 2 C8.33 1.34 8.66 0.68 9 0 C8.67 1.65 8.34 3.3 8 5 C5.69 4.67 3.38 4.34 1 4 C0.67 2.68 0.34 1.36 0 0 Z " fill="#2C637A" transform="translate(410,72)"/>
<path d="M0 0 C0.33 0 0.66 0 1 0 C1.33 1.98 1.66 3.96 2 6 C2.66 5.67 3.32 5.34 4 5 C4 7.31 4 9.62 4 12 C1.03 11.505 1.03 11.505 -2 11 C-1.34 7.37 -0.68 3.74 0 0 Z " fill="#558496" transform="translate(434,74)"/>
<path d="M0 0 C0.66 0 1.32 0 2 0 C2 0.99 2 1.98 2 3 C2.66 3 3.32 3 4 3 C4 5.64 4 8.28 4 11 C3.01 11.33 2.02 11.66 1 12 C1.33 9.36 1.66 6.72 2 4 C0.68 3.67 -0.64 3.34 -2 3 C-1.01 3 -0.02 3 1 3 C0.67 2.01 0.34 1.02 0 0 Z " fill="#42768A" transform="translate(355,71)"/>
<path d="M0 0 C2.72869407 0.03287583 5.2966618 0.56397771 8 1 C8 2.32 8 3.64 8 5 C7.01 5 6.02 5 5 5 C5 4.34 5 3.68 5 3 C2.69 2.67 0.38 2.34 -2 2 C-1.34 1.34 -0.68 0.68 0 0 Z " fill="#8AACB8" transform="translate(410,69)"/>
<path d="M0 0 C1 2 1 2 0.25 4.75 C-1.43773005 9.13809814 -3.39192949 13.08789424 -6 17 C-6.66 16.67 -7.32 16.34 -8 16 C-7.360625 14.9275 -6.72125 13.855 -6.0625 12.75 C-4.59398727 10.19177818 -3.47145458 7.94659114 -3 5 C-2.34 5 -1.68 5 -1 5 C-0.67 3.35 -0.34 1.7 0 0 Z " fill="#808C78" transform="translate(661,52)"/>
<path d="M0 0 C4 2 4 2 5.25 4.625 C5.4975 5.40875 5.745 6.1925 6 7 C4.35 6.01 2.7 5.02 1 4 C1 6.31 1 8.62 1 11 C0.01 10.34 -0.98 9.68 -2 9 C-1.34 9 -0.68 9 0 9 C0 6.03 0 3.06 0 0 Z " fill="#47798D" transform="translate(237,76)"/>
<path d="M0 0 C1.98 0 3.96 0 6 0 C6 1.98 6 3.96 6 6 C4.68 6.33 3.36 6.66 2 7 C2.66 6.67 3.32 6.34 4 6 C4 5.01 4 4.02 4 3 C2.68 3 1.36 3 0 3 C0 2.01 0 1.02 0 0 Z " fill="#A2BEC7" transform="translate(226,77)"/>
<path d="M0 0 C3.5 0.125 3.5 0.125 7 1 C8.4375 3.0625 8.4375 3.0625 9 5 C8.01 5 7.02 5 6 5 C6 4.34 6 3.68 6 3 C3.36 2.67 0.72 2.34 -2 2 C-1.34 1.34 -0.68 0.68 0 0 Z " fill="#8BADB9" transform="translate(363,69)"/>
<path d="M0 0 C1.33332095 2.6666419 0.67102033 4.16680303 0 7 C-0.66 7 -1.32 7 -2 7 C-2 11.29 -2 15.58 -2 20 C-2.33 20 -2.66 20 -3 20 C-3 14.72 -3 9.44 -3 4 C-2.34 4 -1.68 4 -1 4 C-0.67 2.68 -0.34 1.36 0 0 Z " fill="#F0D5AE" transform="translate(24,30)"/>
<path d="M0 0 C6.6 0 13.2 0 20 0 C20 0.66 20 1.32 20 2 C20.66 2.33 21.32 2.66 22 3 C21.35675781 2.84660156 20.71351563 2.69320313 20.05078125 2.53515625 C16.10232463 1.84253326 12.1868113 1.64199119 8.1875 1.4375 C7.39923828 1.39431641 6.61097656 1.35113281 5.79882812 1.30664062 C3.86605785 1.20121679 1.93304974 1.10016906 0 1 C0 0.67 0 0.34 0 0 Z " fill="#587774" transform="translate(617,3)"/>
<path d="M0 0 C0.33 0 0.66 0 1 0 C1 4.95 1 9.9 1 15 C0.34 15 -0.32 15 -1 15 C-1.33 16.32 -1.66 17.64 -2 19 C-3.33332095 16.3333581 -2.67102033 14.83319697 -2 12 C-1.34 12 -0.68 12 0 12 C0 8.04 0 4.08 0 0 Z " fill="#F3E0C2" transform="translate(646,617)"/>
<path d="M0 0 C0.66 0 1.32 0 2 0 C1.6875 1.875 1.6875 1.875 1 4 C-2.22791555 6.1519437 -3.28400809 6.20086443 -7 6 C-6.67 5.01 -6.34 4.02 -6 3 C-4.35 3 -2.7 3 -1 3 C-0.67 2.01 -0.34 1.02 0 0 Z " fill="#91B1BC" transform="translate(370,80)"/>
<path d="M0 0 C0 0.66 0 1.32 0 2 C-0.99 2 -1.98 2 -3 2 C-3.03738281 2.62648438 -3.07476562 3.25296875 -3.11328125 3.8984375 C-3.17902344 4.71570313 -3.24476563 5.53296875 -3.3125 6.375 C-3.37050781 7.18710938 -3.42851562 7.99921875 -3.48828125 8.8359375 C-4 11 -4 11 -7 13 C-6.49540386 8.71093278 -5.94350927 4.88701855 -4 1 C-2 0 -2 0 0 0 Z " fill="#BACFD6" transform="translate(444,71)"/>
<path d="M0 0 C0.99 0 1.98 0 3 0 C3.33 1.65 3.66 3.3 4 5 C3.01 4.67 2.02 4.34 1 4 C1 7.3 1 10.6 1 14 C0.67 14 0.34 14 0 14 C0 9.38 0 4.76 0 0 Z " fill="#CBDAE0" transform="translate(235,70)"/>
<path d="M0 0 C0.66 0.33 1.32 0.66 2 1 C1.67 1.66 1.34 2.32 1 3 C1.66 3 2.32 3 3 3 C3 4.32 3 5.64 3 7 C1.02 7 -0.96 7 -3 7 C-1.125 2.25 -1.125 2.25 0 0 Z " fill="#6892A2" transform="translate(458,38)"/>
<path d="M0 0 C0.66 0.33 1.32 0.66 2 1 C1.443125 1.20625 0.88625 1.4125 0.3125 1.625 C-2.84642493 3.50327969 -4.66704327 6.18848805 -7 9 C-7.99 9.33 -8.98 9.66 -10 10 C-8.4411666 6.17377257 -6.04566418 3.74852621 -3 1 C-2.01 0.67 -1.02 0.34 0 0 Z " fill="#F7EAD5" transform="translate(615,20)"/>
<path d="M0 0 C0.66 0 1.32 0 2 0 C2 1.98 2 3.96 2 6 C0.02 6 -1.96 6 -4 6 C-4.33 6.99 -4.66 7.98 -5 9 C-5 7.68 -5 6.36 -5 5 C-3.68 5 -2.36 5 -1 5 C-1.33 3.68 -1.66 2.36 -2 1 C-1.34 1 -0.68 1 0 1 C0 0.67 0 0.34 0 0 Z " fill="#4B7D90" transform="translate(230,71)"/>
<path d="M0 0 C0.99 0 1.98 0 3 0 C2.54917531 1.46067199 2.08906463 2.91848032 1.625 4.375 C1.36976563 5.18710938 1.11453125 5.99921875 0.8515625 6.8359375 C0 9 0 9 -2 11 C-1.34 7.37 -0.68 3.74 0 0 Z " fill="#9DBAC4" transform="translate(291,70)"/>
<path d="M0 0 C2.875 -0.125 2.875 -0.125 6 0 C6.66 0.66 7.32 1.32 8 2 C4.78548731 3.60725635 1.56387464 3.05748185 -2 3 C-1.34 2.67 -0.68 2.34 0 2 C0 1.34 0 0.68 0 0 Z " fill="#8BADB9" transform="translate(298,83)"/>
<path d="M0 0 C0.33 0 0.66 0 1 0 C1 2.97 1 5.94 1 9 C1.66 9 2.32 9 3 9 C3 10.32 3 11.64 3 13 C2.34 13 1.68 13 1 13 C0.67 13.66 0.34 14.32 0 15 C0 10.05 0 5.1 0 0 Z " fill="#508093" transform="translate(463,36)"/>
<path d="M0 0 C0.66 0.33 1.32 0.66 2 1 C1.67 1.99 1.34 2.98 1 4 C0.01 3.67 -0.98 3.34 -2 3 C-2 5.97 -2 8.94 -2 12 C-2.66 11.67 -3.32 11.34 -4 11 C-3.67 7.7 -3.34 4.4 -3 1 C-2.01 0.67 -1.02 0.34 0 0 Z " fill="#94B3BE" transform="translate(239,73)"/>
<path d="M0 0 C0.33 0 0.66 0 1 0 C1.05410687 1.77049689 1.09284119 3.54146849 1.125 5.3125 C1.14820313 6.29863281 1.17140625 7.28476562 1.1953125 8.30078125 C1 11 1 11 -1 14 C-1.66 14 -2.32 14 -3 14 C-2.5359375 12.7625 -2.5359375 12.7625 -2.0625 11.5 C-0.88122417 7.60873845 -0.41775832 4.03833047 0 0 Z " fill="#4C7172" transform="translate(446,40)"/>
<path d="M0 0 C-0.33 0.99 -0.66 1.98 -1 3 C-2.98 3 -4.96 3 -7 3 C-7 2.01 -7 1.02 -7 0 C-4.3333581 -1.33332095 -2.83319697 -0.67102033 0 0 Z " fill="#9AB8C2" transform="translate(461,45)"/>
<path d="M0 0 C1 2 1 2 0.22265625 4.3828125 C-0.16019531 5.28773437 -0.54304687 6.19265625 -0.9375 7.125 C-1.31777344 8.03507812 -1.69804687 8.94515625 -2.08984375 9.8828125 C-2.39019531 10.58148438 -2.69054687 11.28015625 -3 12 C-3.66 12 -4.32 12 -5 12 C-4.67 10.02 -4.34 8.04 -4 6 C-3.34 6 -2.68 6 -2 6 C-1.34 4.02 -0.68 2.04 0 0 Z " fill="#AEA37E" transform="translate(13,19)"/>
<path d="M0 0 C2.31 1.65 4.62 3.3 7 5 C5.68 5.33 4.36 5.66 3 6 C2.01 5.34 1.02 4.68 0 4 C0 2.68 0 1.36 0 0 Z " fill="#9CB9C4" transform="translate(407,80)"/>
<path d="M0 0 C2.64 0 5.28 0 8 0 C8 0.66 8 1.32 8 2 C4.7 2.33 1.4 2.66 -2 3 C-1.34 2.67 -0.68 2.34 0 2 C0 1.34 0 0.68 0 0 Z " fill="#81A5B3" transform="translate(224,83)"/>
<path d="M0 0 C1.53445094 3.06890187 0.54984289 5.70094266 0 9 C-1.32 9.33 -2.64 9.66 -4 10 C-4 8 -4 8 -2 6 C-1.28591666 4.01643517 -0.61382258 2.01684563 0 0 Z " fill="#7DA2B0" transform="translate(289,76)"/>
<path d="M0 0 C0.33 0 0.66 0 1 0 C1 2.97 1 5.94 1 9 C-0.65 9.33 -2.3 9.66 -4 10 C-3.34 9.67 -2.68 9.34 -2 9 C-1.31270746 6.88153715 -1.31270746 6.88153715 -0.875 4.4375 C-0.70742188 3.61121094 -0.53984375 2.78492187 -0.3671875 1.93359375 C-0.24601562 1.29550781 -0.12484375 0.65742187 0 0 Z " fill="#C0D3D9" transform="translate(262,74)"/>
<path d="M0 0 C2 0.6875 2 0.6875 4 2.6875 C1.36 2.6875 -1.28 2.6875 -4 2.6875 C-4 2.0275 -4 1.3675 -4 0.6875 C-2 -0.3125 -2 -0.3125 0 0 Z " fill="#89ABB8" transform="translate(316,83.3125)"/>
</svg>
